<svg width="36" height="37" viewBox="0 0 36 37" fill="none" xmlns="http://www.w3.org/2000/svg">
<path fill-rule="evenodd" clip-rule="evenodd" d="M27.8169 8.59961H8.28511C7.68228 8.59961 7.20001 9.10585 7.20001 9.73866V22.5213C7.20001 23.2807 7.68228 23.7869 8.28511 23.7869H27.6963C28.2991 23.7869 28.7814 23.2807 28.7814 22.6479V9.73866C28.902 9.10585 28.4197 8.59961 27.8169 8.59961ZM22.0138 12.2504C21.6806 11.9007 21.1405 11.9007 20.8073 12.2504L17.9603 15.239L15.1132 12.2504C14.7801 11.9007 14.2399 11.9007 13.9068 12.2504C13.5736 12.6001 13.5736 13.1671 13.9068 13.5168L16.7538 16.5054L13.906 19.4949C13.5728 19.8446 13.5728 20.4116 13.906 20.7613C14.2391 21.111 14.7793 21.111 15.1124 20.7613L17.9603 17.7719L20.8082 20.7613C21.1413 21.111 21.6815 21.111 22.0146 20.7613C22.3478 20.4116 22.3478 19.8446 22.0146 19.4949L19.1667 16.5054L22.0138 13.5168C22.3469 13.1671 22.3469 12.6001 22.0138 12.2504Z" fill="#545454"/>
<path d="M14.427 27.7996H21.3636C21.6718 27.7996 22.1343 27.476 22.1343 26.9906C22.1343 26.5051 21.826 26.1815 21.3636 26.1815H14.427C13.9645 26.1815 13.6562 26.5051 13.6562 26.9906C13.6562 27.476 13.9645 27.7996 14.427 27.7996Z" fill="#545454"/>
</svg>
