<svg width="24" height="24" viewBox="0 0 24 24" fill="none" xmlns="http://www.w3.org/2000/svg">
<path fill-rule="evenodd" clip-rule="evenodd" d="M12 3C11.6238 3 11.2544 3.10012 10.929 3.29023C10.6042 3.48 10.3348 3.75271 10.148 4.08084L10.147 4.08259L2.28724 17.76C2.09939 18.0878 2.00033 18.4596 2 18.8381C1.99967 19.2166 2.09807 19.5886 2.28535 19.9167C2.47262 20.2449 2.7422 20.5176 3.06706 20.7078C3.39193 20.8979 3.76069 20.9987 4.13639 21L4.1389 21H19.8611L19.8636 21C20.2393 20.9987 20.6081 20.8979 20.9329 20.7078C21.2578 20.5176 21.5274 20.2449 21.7147 19.9167C21.9019 19.5886 22.0003 19.2166 22 18.8381C21.9997 18.4596 21.9002 18.0871 21.7123 17.7593L13.853 4.08259L13.8521 4.08092C13.6653 3.75276 13.3959 3.48001 13.071 3.29023C12.7456 3.10012 12.3762 3 12 3ZM12 9.48015C12.3947 9.48015 12.7147 9.8025 12.7147 10.2001V13.8001C12.7147 14.1977 12.3947 14.5201 12 14.5201C11.6053 14.5201 11.2854 14.1977 11.2854 13.8001V10.2001C11.2854 9.8025 11.6053 9.48015 12 9.48015ZM12 18.12C12.5921 18.12 13.072 17.6365 13.072 17.0401C13.072 16.4436 12.5921 15.9601 12 15.9601C11.408 15.9601 10.9281 16.4436 10.9281 17.0401C10.9281 17.6365 11.408 18.12 12 18.12Z" fill="#545452"/>
</svg>
