<svg width="36" height="37" viewBox="0 0 36 37" fill="none" xmlns="http://www.w3.org/2000/svg">
<path fill-rule="evenodd" clip-rule="evenodd" d="M8.28511 8.90039H27.8169C28.4197 8.90039 28.902 9.40662 28.7814 10.0394V22.9483C28.7814 23.5811 28.2991 24.0874 27.6963 24.0874H8.28511C7.68228 24.0874 7.20001 23.5811 7.20001 22.8218V10.0394C7.20001 9.40662 7.68228 8.90039 8.28511 8.90039ZM18.5977 10.4912C18.2462 10.1222 17.6764 10.1222 17.3249 10.4912L14.0971 13.8794C13.7456 14.2483 13.7456 14.8465 14.0971 15.2155C14.4486 15.5844 15.0184 15.5844 15.3699 15.2155L17.0613 13.44V21.8886C17.0613 22.4104 17.4643 22.8334 17.9613 22.8334C18.4584 22.8334 18.8613 22.4104 18.8613 21.8886V13.44L20.5528 15.2155C20.9042 15.5844 21.4741 15.5844 21.8255 15.2155C22.177 14.8465 22.177 14.2483 21.8255 13.8794L18.5977 10.4912Z" fill="white"/>
<path d="M21.3667 28.1004H14.4301C13.9677 28.1004 13.6594 27.7768 13.6594 27.2914C13.6594 26.8059 13.9677 26.4823 14.4301 26.4823H21.3667C21.8291 26.4823 22.1374 26.8059 22.1374 27.2914C22.1374 27.7768 21.675 28.1004 21.3667 28.1004Z" fill="white"/>
</svg>
