<svg width="24" height="24" viewBox="0 0 24 24" fill="none" xmlns="http://www.w3.org/2000/svg">
<path d="M12 2.4375C10.1087 2.4375 8.25991 2.99833 6.68736 4.04907C5.11482 5.09981 3.88917 6.59327 3.16541 8.34059C2.44164 10.0879 2.25227 12.0106 2.62125 13.8656C2.99022 15.7205 3.90096 17.4244 5.2383 18.7617C6.57564 20.099 8.27951 21.0098 10.1345 21.3788C11.9894 21.7477 13.9121 21.5584 15.6594 20.8346C17.4067 20.1108 18.9002 18.8852 19.9509 17.3126C21.0017 15.7401 21.5625 13.8913 21.5625 12C21.5597 9.46474 20.5513 7.03414 18.7586 5.24144C16.9659 3.44874 14.5353 2.44035 12 2.4375ZM12 20.4375C10.3312 20.4375 8.69992 19.9426 7.31238 19.0155C5.92484 18.0884 4.84338 16.7706 4.20477 15.2289C3.56616 13.6871 3.39907 11.9906 3.72463 10.3539C4.05019 8.71721 4.85379 7.21379 6.03379 6.03379C7.2138 4.85378 8.71722 4.05019 10.3539 3.72462C11.9906 3.39906 13.6871 3.56615 15.2289 4.20477C16.7706 4.84338 18.0884 5.92484 19.0155 7.31238C19.9427 8.69992 20.4375 10.3312 20.4375 12C20.435 14.237 19.5452 16.3816 17.9634 17.9634C16.3816 19.5452 14.237 20.435 12 20.4375ZM11.4375 12.75V7.5C11.4375 7.35082 11.4968 7.20774 11.6023 7.10225C11.7077 6.99676 11.8508 6.9375 12 6.9375C12.1492 6.9375 12.2923 6.99676 12.3978 7.10225C12.5032 7.20774 12.5625 7.35082 12.5625 7.5V12.75C12.5625 12.8992 12.5032 13.0423 12.3978 13.1477C12.2923 13.2532 12.1492 13.3125 12 13.3125C11.8508 13.3125 11.7077 13.2532 11.6023 13.1477C11.4968 13.0423 11.4375 12.8992 11.4375 12.75ZM12.9375 16.125C12.9375 16.3104 12.8825 16.4917 12.7795 16.6458C12.6765 16.8 12.5301 16.9202 12.3588 16.9911C12.1875 17.0621 11.999 17.0807 11.8171 17.0445C11.6353 17.0083 11.4682 16.919 11.3371 16.7879C11.206 16.6568 11.1167 16.4898 11.0805 16.3079C11.0443 16.126 11.0629 15.9375 11.1339 15.7662C11.2048 15.5949 11.325 15.4485 11.4792 15.3455C11.6333 15.2425 11.8146 15.1875 12 15.1875C12.2486 15.1878 12.4869 15.2866 12.6626 15.4624C12.8384 15.6381 12.9372 15.8764 12.9375 16.125Z" fill="white"/>
</svg>
