<svg width="24" height="24" viewBox="0 0 24 24" fill="none" xmlns="http://www.w3.org/2000/svg">
<path fill-rule="evenodd" clip-rule="evenodd" d="M19.6033 3.23964C19.9228 2.92012 20.4408 2.92012 20.7604 3.23964C21.0799 3.55916 21.0799 4.0772 20.7604 4.39672L16.4298 8.72727H19.3636C19.8155 8.72727 20.1818 9.09359 20.1818 9.54545C20.1818 9.99732 19.8155 10.3636 19.3636 10.3636H14.4545C14.0027 10.3636 13.6364 9.99732 13.6364 9.54545V4.63636C13.6364 4.18449 14.0027 3.81818 14.4545 3.81818C14.9064 3.81818 15.2727 4.18449 15.2727 4.63636V7.57019L19.6033 3.23964ZM4.63636 15.2727C4.18449 15.2727 3.81818 14.9064 3.81818 14.4545C3.81818 14.0027 4.18449 13.6364 4.63636 13.6364H9.54545C9.99732 13.6364 10.3636 14.0027 10.3636 14.4545V19.3636C10.3636 19.8155 9.99732 20.1818 9.54545 20.1818C9.09359 20.1818 8.72727 19.8155 8.72727 19.3636V16.4298L4.39672 20.7604C4.0772 21.0799 3.55916 21.0799 3.23964 20.7604C2.92012 20.4408 2.92012 19.9228 3.23964 19.6033L7.57019 15.2727H4.63636Z" fill="white" fill-opacity="0.8"/>
</svg>
