<svg width="20" height="20" viewBox="0 0 20 20" fill="none" xmlns="http://www.w3.org/2000/svg">
<path fill-rule="evenodd" clip-rule="evenodd" d="M9.99996 2.85698C8.70483 2.85698 7.65492 3.92297 7.65492 5.23793V9.99984C7.65492 11.3148 8.70483 12.3808 9.99996 12.3808C11.2951 12.3808 12.345 11.3148 12.345 9.99984V5.23793C12.345 3.92297 11.2951 2.85698 9.99996 2.85698ZM6.48241 5.23793C6.48241 3.26549 8.05727 1.6665 9.99996 1.6665C11.9427 1.6665 13.5175 3.26549 13.5175 5.23793V9.99984C13.5175 11.9723 11.9427 13.5713 9.99996 13.5713C8.05727 13.5713 6.48241 11.9723 6.48241 9.99984V5.23793Z" fill="#9AD9F5"/>
<path fill-rule="evenodd" clip-rule="evenodd" d="M9.99996 14.7617C10.3237 14.7617 10.5862 15.0282 10.5862 15.357V17.7379C10.5862 18.0667 10.3237 18.3332 9.99996 18.3332C9.67618 18.3332 9.4137 18.0667 9.4137 17.7379V15.357C9.4137 15.0282 9.67618 14.7617 9.99996 14.7617Z" fill="#9AD9F5"/>
<path fill-rule="evenodd" clip-rule="evenodd" d="M4.68402 10.004C5.00555 9.96532 5.29707 10.1986 5.33514 10.5251C5.47036 11.6848 6.01996 12.7538 6.87975 13.5296C7.73954 14.3053 8.84976 14.7337 9.99996 14.7337C11.1502 14.7337 12.2604 14.3053 13.1202 13.5296C13.98 12.7538 14.5296 11.6848 14.6648 10.5251C14.7028 10.1986 14.9944 9.96532 15.3159 10.004C15.6374 10.0426 15.8672 10.3386 15.8292 10.6651C15.6602 12.1142 14.9734 13.4501 13.899 14.4195C12.8246 15.3888 11.4373 15.9242 9.99996 15.9242C8.56266 15.9242 7.17532 15.3888 6.10091 14.4195C5.02651 13.4501 4.33972 12.1142 4.17075 10.6651C4.13268 10.3386 4.36248 10.0426 4.68402 10.004Z" fill="#9AD9F5"/>
</svg>
