<svg width="56" height="56" viewBox="0 0 56 56" fill="none" xmlns="http://www.w3.org/2000/svg">
<circle cx="28" cy="28" r="28" fill="white"/>
<path d="M30.9897 21H20.8922C19.9837 21 19.25 21.8021 19.25 22.75V33.2865C19.25 34.2344 19.9837 35 20.8922 35H30.9897C31.8981 35 32.6668 34.2344 32.6668 33.2865V22.75C32.6668 21.8021 31.8981 21 30.9897 21Z" fill="white"/>
<path d="M36.8266 23.0084L33.25 25.6126V30.9923L36.8266 33.5965C37.5156 34.0762 38.5 33.5622 38.5 32.7056V23.8993C38.5 23.0426 37.5156 22.5286 36.8266 23.0084Z" fill="white"/>
<path d="M30.9897 21H20.8922C19.9837 21 19.25 21.8021 19.25 22.75V33.2865C19.25 34.2344 19.9837 35 20.8922 35H30.9897C31.8981 35 32.6668 34.2344 32.6668 33.2865V22.75C32.6668 21.8021 31.8981 21 30.9897 21Z" fill="#D8D8D8"/>
<path d="M36.8266 23.0084L33.25 25.6126V30.9923L36.8266 33.5965C37.5156 34.0762 38.5 33.5622 38.5 32.7056V23.8993C38.5 23.0426 37.5156 22.5286 36.8266 23.0084Z" fill="#D8D8D8"/>
<path d="M30.9897 21H20.8922C19.9837 21 19.25 21.8021 19.25 22.75V33.2865C19.25 34.2344 19.9837 35 20.8922 35H30.9897C31.8981 35 32.6668 34.2344 32.6668 33.2865V22.75C32.6668 21.8021 31.8981 21 30.9897 21Z" fill="#B4B4B4"/>
<path d="M36.8266 23.0084L33.25 25.6126V30.9923L36.8266 33.5965C37.5156 34.0762 38.5 33.5622 38.5 32.7056V23.8993C38.5 23.0426 37.5156 22.5286 36.8266 23.0084Z" fill="#B4B4B4"/>
<path d="M30.9897 21H20.8922C19.9837 21 19.25 21.8021 19.25 22.75V33.2865C19.25 34.2344 19.9837 35 20.8922 35H30.9897C31.8981 35 32.6668 34.2344 32.6668 33.2865V22.75C32.6668 21.8021 31.8981 21 30.9897 21Z" fill="#545454"/>
<path d="M36.8266 23.0084L33.25 25.6126V30.9923L36.8266 33.5965C37.5156 34.0762 38.5 33.5622 38.5 32.7056V23.8993C38.5 23.0426 37.5156 22.5286 36.8266 23.0084Z" fill="#545454"/>
</svg>
