<svg width="62" height="62" viewBox="0 0 62 62" fill="none" xmlns="http://www.w3.org/2000/svg">
<g filter="url(#filter0_d_4311_33340)">
<circle cx="31" cy="30" r="28" fill="white"/>
</g>
<path d="M37.6274 20.7929C37.0737 20.6251 36.4328 20.8825 36.2233 21.4369C36.0026 22.0157 36.3667 22.5942 36.9264 22.7673L36.9291 22.7682C40.2718 23.7862 42.4841 26.5858 42.4841 29.7024C42.4841 32.8153 40.2767 35.6147 36.9419 36.6372C36.3762 36.8085 36.0149 37.3932 36.2365 37.9699C36.4049 38.4119 36.8506 38.6622 37.2913 38.6622C37.4136 38.6622 37.5286 38.6429 37.6341 38.6121L37.642 38.6097C41.8554 37.3179 44.7216 33.7505 44.7216 29.7024C44.7216 25.6499 41.8497 22.0825 37.6288 20.7933L37.4412 21.3509L37.6274 20.7929Z" fill="#545454"/>
<path d="M37.1181 25.0481C36.6433 24.927 36.0977 25.1594 35.9382 25.6571C35.7711 26.1704 36.1158 26.6581 36.6044 26.7844C38.0742 27.1668 39.0655 28.3823 39.0655 29.701C39.0655 31.0212 38.0738 32.2365 36.6043 32.6176L36.6018 32.6183C36.1169 32.7461 35.7707 33.23 35.9383 33.7463C36.0696 34.1535 36.4659 34.3872 36.8613 34.3872C36.9559 34.3872 37.0384 34.3736 37.1037 34.3585L37.1122 34.3566L37.1207 34.3544C39.3832 33.767 40.9976 31.8687 40.9976 29.701C40.9976 27.5326 39.383 25.6361 37.1207 25.0488L37.1181 25.0481Z" fill="#545454"/>
<path d="M17.8887 34.091V25.7625C17.8887 25.475 18.1332 25.242 18.4349 25.242H22.8046V34.6116H18.4349C18.1332 34.6116 17.8887 34.3785 17.8887 34.091Z" fill="#545454"/>
<path d="M30.9877 20.0747L23.8971 25.242V34.6116L30.9491 40.1461C31.84 40.8452 33.1827 40.2413 33.1827 39.1415V21.1084C33.1827 20.0304 31.8862 19.4199 30.9877 20.0747Z" fill="#545454"/>
<defs>
<filter id="filter0_d_4311_33340" x="0" y="0" width="62" height="62" filterUnits="userSpaceOnUse" color-interpolation-filters="sRGB">
<feFlood flood-opacity="0" result="BackgroundImageFix"/>
<feColorMatrix in="SourceAlpha" type="matrix" values="0 0 0 0 0 0 0 0 0 0 0 0 0 0 0 0 0 0 127 0" result="hardAlpha"/>
<feOffset dy="1"/>
<feGaussianBlur stdDeviation="1.5"/>
<feColorMatrix type="matrix" values="0 0 0 0 0 0 0 0 0 0 0 0 0 0 0 0 0 0 0.17 0"/>
<feBlend mode="normal" in2="BackgroundImageFix" result="effect1_dropShadow_4311_33340"/>
<feBlend mode="normal" in="SourceGraphic" in2="effect1_dropShadow_4311_33340" result="shape"/>
</filter>
</defs>
</svg>
