<svg width="20" height="20" viewBox="0 0 20 20" fill="none" xmlns="http://www.w3.org/2000/svg">
<path fill-rule="evenodd" clip-rule="evenodd" d="M11.6885 2.55867C11.8856 2.65548 12.0106 2.85658 12.0106 3.07693V16.9231C12.0106 17.1434 11.8856 17.3445 11.6885 17.4413C11.4913 17.5381 11.2564 17.5137 11.0832 17.3785L6.06682 13.4615H2.816C2.51118 13.4615 2.21884 13.34 2.0033 13.1236C1.78776 12.9072 1.66667 12.6137 1.66667 12.3077V7.69231C1.66667 7.38629 1.78776 7.09281 2.0033 6.87642C2.21884 6.66003 2.51118 6.53846 2.816 6.53846H6.06682L11.0832 2.62153C11.2564 2.48625 11.4913 2.46186 11.6885 2.55867ZM5.68932 7.69231L2.816 7.69231V12.3077H5.68932V7.69231ZM6.83865 12.6025L10.8613 15.7435V4.25653L6.83865 7.39755V12.6025ZM15.8349 5.92178C16.059 5.69622 16.4229 5.69579 16.6476 5.92083C17.1819 6.45606 17.6059 7.09185 17.8952 7.79181C18.1844 8.49176 18.3333 9.24212 18.3333 9.99993C18.3333 10.7577 18.1844 11.5081 17.8952 12.208C17.6059 12.908 17.1819 13.5438 16.6476 14.079C16.4229 14.3041 16.059 14.3036 15.8349 14.0781C15.6107 13.8525 15.6111 13.4872 15.8358 13.2622C16.2632 12.8341 16.6022 12.3257 16.8336 11.7659C17.0649 11.2061 17.184 10.606 17.184 9.99993C17.184 9.39387 17.0649 8.79377 16.8336 8.23398C16.6022 7.6742 16.2632 7.16572 15.8358 6.73767C15.6111 6.51263 15.6107 6.14735 15.8349 5.92178ZM13.8015 7.96311C14.0255 7.73737 14.3894 7.73667 14.6142 7.96154C14.8815 8.22887 15.0936 8.54656 15.2384 8.89639C15.3831 9.24621 15.4576 9.62128 15.4576 10.0001C15.4576 10.3789 15.3831 10.7539 15.2384 11.1038C15.0936 11.4536 14.8815 11.7713 14.6142 12.0386C14.3894 12.2635 14.0255 12.2628 13.8015 12.037C13.5775 11.8113 13.5782 11.446 13.8031 11.2212C13.9632 11.061 14.0903 10.8707 14.177 10.6612C14.2636 10.4516 14.3083 10.227 14.3083 10.0001C14.3083 9.77318 14.2636 9.54851 14.177 9.33897C14.0903 9.12943 13.9632 8.93913 13.8031 8.779C13.5782 8.55413 13.5775 8.18884 13.8015 7.96311Z" fill="#9AD9F5"/>
</svg>
