<?xml version="1.0" encoding="UTF-8" standalone="no"?>
<svg xmlns:android="http://schemas.android.com/apk/res/android" height="35" width="35" xmlns="http://www.w3.org/2000/svg">
    <path d="M23.6274,7.7929C23.0737,7.6251 22.4328,7.8825 22.2233,8.4369C22.0026,9.0157 22.3667,9.5942 22.9264,9.7673L22.9291,9.7682C26.2718,10.7862 28.4841,13.5858 28.4841,16.7024C28.4841,19.8153 26.2767,22.6147 22.9419,23.6372C22.3762,23.8085 22.0149,24.3932 22.2365,24.9699C22.4049,25.4119 22.8506,25.6622 23.2913,25.6622C23.4136,25.6622 23.5286,25.6429 23.6341,25.6121L23.642,25.6097C27.8554,24.3179 30.7216,20.7505 30.7216,16.7024C30.7216,12.6499 27.8497,9.0825 23.6288,7.7933L23.4412,8.3509L23.6274,7.7929Z" fill="#ffffff"/>
    <path d="M23.1181,12.0481C22.6433,11.927 22.0977,12.1594 21.9382,12.6571C21.7711,13.1704 22.1158,13.6581 22.6044,13.7844C24.0742,14.1668 25.0655,15.3823 25.0655,16.701C25.0655,18.0212 24.0738,19.2365 22.6043,19.6176L22.6018,19.6183C22.1169,19.7461 21.7707,20.23 21.9383,20.7463C22.0696,21.1535 22.4659,21.3872 22.8613,21.3872C22.9559,21.3872 23.0384,21.3736 23.1037,21.3585L23.1122,21.3566L23.1207,21.3544C25.3832,20.767 26.9976,18.8687 26.9976,16.701C26.9976,14.5326 25.383,12.6361 23.1207,12.0488L23.1181,12.0481Z" fill="#ffffff"/>
    <path d="M3.8887,21.091V12.7625C3.8887,12.475 4.1332,12.242 4.4349,12.242H8.8046V21.6116H4.4349C4.1332,21.6116 3.8887,21.3785 3.8887,21.091Z" fill="#ffffff"/>
    <path d="M16.9877,7.0747L9.897,12.242V21.6116L16.9491,27.1461C17.84,27.8452 19.1827,27.2413 19.1827,26.1415V8.1084C19.1827,7.0304 17.8862,6.4199 16.9877,7.0747Z" fill="#ffffff"/>
</svg>
