<svg width="40" height="40" viewBox="0 0 40 40" fill="none" xmlns="http://www.w3.org/2000/svg">
<path fill-rule="evenodd" clip-rule="evenodd" d="M19.9998 20.7925V26.3307C19.9998 26.5449 19.9215 26.7304 19.765 26.887C19.6084 27.0435 19.4229 27.1218 19.2087 27.1218C18.9944 27.1218 18.809 27.0435 18.6524 26.887L16.8722 25.1068L12.768 29.211C12.6856 29.2934 12.5909 29.3346 12.4837 29.3346C12.3766 29.3346 12.2818 29.2934 12.1994 29.211L10.7901 27.8017C10.7077 27.7193 10.6665 27.6246 10.6665 27.5174C10.6665 27.4103 10.7077 27.3155 10.7901 27.2331L14.8943 23.1289L13.1142 21.3488C12.9576 21.1922 12.8793 21.0067 12.8793 20.7925C12.8793 20.5782 12.9576 20.3928 13.1142 20.2362C13.2708 20.0796 13.4562 20.0013 13.6705 20.0013H19.2087C19.4229 20.0013 19.6084 20.0796 19.765 20.2362C19.9215 20.3928 19.9998 20.5782 19.9998 20.7925ZM29.2096 12.2009C29.292 12.2833 29.3332 12.378 29.3332 12.4852C29.3332 12.5923 29.292 12.6871 29.2096 12.7695L25.1054 16.8737L26.8855 18.6538C27.0421 18.8104 27.1204 18.9959 27.1204 19.2101C27.1204 19.4244 27.0421 19.6098 26.8855 19.7664C26.7289 19.923 26.5435 20.0013 26.3292 20.0013H20.791C20.5767 20.0013 20.3913 19.923 20.2347 19.7664C20.0781 19.6098 19.9998 19.4244 19.9998 19.2101V13.6719C19.9998 13.4577 20.0781 13.2722 20.2347 13.1157C20.3913 12.9591 20.5767 12.8808 20.791 12.8808C21.0053 12.8808 21.1907 12.9591 21.3473 13.1157L23.1274 14.8958L27.2316 10.7916C27.314 10.7092 27.4088 10.668 27.516 10.668C27.6231 10.668 27.7179 10.7092 27.8003 10.7916L29.2096 12.2009Z" fill="white"/>
<path fill-rule="evenodd" clip-rule="evenodd" d="M19.9998 20.7925V26.3307C19.9998 26.5449 19.9215 26.7304 19.765 26.887C19.6084 27.0435 19.4229 27.1218 19.2087 27.1218C18.9944 27.1218 18.809 27.0435 18.6524 26.887L16.8722 25.1068L12.768 29.211C12.6856 29.2934 12.5909 29.3346 12.4837 29.3346C12.3766 29.3346 12.2818 29.2934 12.1994 29.211L10.7901 27.8017C10.7077 27.7193 10.6665 27.6246 10.6665 27.5174C10.6665 27.4103 10.7077 27.3155 10.7901 27.2331L14.8943 23.1289L13.1142 21.3488C12.9576 21.1922 12.8793 21.0067 12.8793 20.7925C12.8793 20.5782 12.9576 20.3928 13.1142 20.2362C13.2708 20.0796 13.4562 20.0013 13.6705 20.0013H19.2087C19.4229 20.0013 19.6084 20.0796 19.765 20.2362C19.9215 20.3928 19.9998 20.5782 19.9998 20.7925ZM29.2096 12.2009C29.292 12.2833 29.3332 12.378 29.3332 12.4852C29.3332 12.5923 29.292 12.6871 29.2096 12.7695L25.1054 16.8737L26.8855 18.6538C27.0421 18.8104 27.1204 18.9959 27.1204 19.2101C27.1204 19.4244 27.0421 19.6098 26.8855 19.7664C26.7289 19.923 26.5435 20.0013 26.3292 20.0013H20.791C20.5767 20.0013 20.3913 19.923 20.2347 19.7664C20.0781 19.6098 19.9998 19.4244 19.9998 19.2101V13.6719C19.9998 13.4577 20.0781 13.2722 20.2347 13.1157C20.3913 12.9591 20.5767 12.8808 20.791 12.8808C21.0053 12.8808 21.1907 12.9591 21.3473 13.1157L23.1274 14.8958L27.2316 10.7916C27.314 10.7092 27.4088 10.668 27.516 10.668C27.6231 10.668 27.7179 10.7092 27.8003 10.7916L29.2096 12.2009Z" fill="#D8D8D8"/>
<path fill-rule="evenodd" clip-rule="evenodd" d="M19.9998 20.7925V26.3307C19.9998 26.5449 19.9215 26.7304 19.765 26.887C19.6084 27.0435 19.4229 27.1218 19.2087 27.1218C18.9944 27.1218 18.809 27.0435 18.6524 26.887L16.8722 25.1068L12.768 29.211C12.6856 29.2934 12.5909 29.3346 12.4837 29.3346C12.3766 29.3346 12.2818 29.2934 12.1994 29.211L10.7901 27.8017C10.7077 27.7193 10.6665 27.6246 10.6665 27.5174C10.6665 27.4103 10.7077 27.3155 10.7901 27.2331L14.8943 23.1289L13.1142 21.3488C12.9576 21.1922 12.8793 21.0067 12.8793 20.7925C12.8793 20.5782 12.9576 20.3928 13.1142 20.2362C13.2708 20.0796 13.4562 20.0013 13.6705 20.0013H19.2087C19.4229 20.0013 19.6084 20.0796 19.765 20.2362C19.9215 20.3928 19.9998 20.5782 19.9998 20.7925ZM29.2096 12.2009C29.292 12.2833 29.3332 12.378 29.3332 12.4852C29.3332 12.5923 29.292 12.6871 29.2096 12.7695L25.1054 16.8737L26.8855 18.6538C27.0421 18.8104 27.1204 18.9959 27.1204 19.2101C27.1204 19.4244 27.0421 19.6098 26.8855 19.7664C26.7289 19.923 26.5435 20.0013 26.3292 20.0013H20.791C20.5767 20.0013 20.3913 19.923 20.2347 19.7664C20.0781 19.6098 19.9998 19.4244 19.9998 19.2101V13.6719C19.9998 13.4577 20.0781 13.2722 20.2347 13.1157C20.3913 12.9591 20.5767 12.8808 20.791 12.8808C21.0053 12.8808 21.1907 12.9591 21.3473 13.1157L23.1274 14.8958L27.2316 10.7916C27.314 10.7092 27.4088 10.668 27.516 10.668C27.6231 10.668 27.7179 10.7092 27.8003 10.7916L29.2096 12.2009Z" fill="#B4B4B4"/>
</svg>
