<svg width="19" height="17" viewBox="0 0 19 17" fill="none" xmlns="http://www.w3.org/2000/svg">
<path fill-rule="evenodd" clip-rule="evenodd" d="M16.8 1.86667H13.8133L12.6696 0.595864C12.3283 0.216579 11.842 0 11.3317 0H7.33499C6.82471 0 6.33841 0.216578 5.99706 0.595864L4.85333 1.86667H1.86667C0.84 1.86667 0 2.70667 0 3.73333V14.9333C0 15.96 0.84 16.8 1.86667 16.8H16.8C17.8267 16.8 18.6667 15.96 18.6667 14.9333V3.73333C18.6667 2.70667 17.8267 1.86667 16.8 1.86667ZM13.2922 9.09964H11.1999C10.7467 9.09964 10.3794 8.74872 10.3794 8.31574C10.3794 7.88275 10.7467 7.53184 11.1999 7.53184H12.1579C11.5391 6.54645 10.4221 5.92484 9.1707 5.92484C7.88993 5.92484 6.71445 6.59376 6.10308 7.67055C5.88689 8.05102 5.38881 8.19218 4.99058 7.98564C4.59218 7.77925 4.44458 7.3034 4.66061 6.92293C5.55933 5.34028 7.28753 4.35703 9.17054 4.35703C10.292 4.35703 11.3574 4.69662 12.2513 5.33936C12.6478 5.62429 12.9981 5.9651 13.2922 6.34496V5.57208C13.2922 5.1391 13.6595 4.78818 14.1127 4.78818C14.5659 4.78818 14.9332 5.1391 14.9332 5.57208V7.53184C14.9332 8.39627 14.197 9.09964 13.2922 9.09964ZM8.28705 10.3539C8.28705 9.9209 7.91974 9.56998 7.46654 9.56998H5.37423C4.46942 9.56998 3.7332 10.2733 3.7332 11.1378V13.0975C3.7332 13.5305 4.10051 13.8814 4.55372 13.8814C5.00692 13.8814 5.37423 13.5305 5.37423 13.0975V12.3149C5.6699 12.6987 6.02279 13.0429 6.42263 13.3303C7.3167 13.973 8.38192 14.3126 9.50324 14.3126C11.3864 14.3126 13.1146 13.3293 14.0133 11.7468C14.2295 11.3662 14.0818 10.8904 13.6834 10.684C13.2851 10.4774 12.7871 10.6186 12.571 10.9992C11.9595 12.0759 10.784 12.7448 9.50324 12.7448C8.25179 12.7448 7.13481 12.1232 6.51606 11.1378H7.46654C7.91974 11.1378 8.28705 10.7869 8.28705 10.3539Z" fill="white"/>
</svg>
