<svg width="24" height="24" viewBox="0 0 24 24" fill="none" xmlns="http://www.w3.org/2000/svg">
<path fill-rule="evenodd" clip-rule="evenodd" d="M8.28304 3.34837C8.4257 3.13065 8.66588 2.99988 8.92308 2.99988H15.0769C15.3341 2.99988 15.5743 3.13065 15.717 3.34837L17.0271 5.3477H19.6923C20.3043 5.3477 20.8913 5.59506 21.3241 6.03537C21.7569 6.47567 22 7.07285 22 7.69553V18.6521C22 19.2747 21.7569 19.8719 21.3241 20.3122C20.8913 20.7525 20.3043 20.9999 19.6923 20.9999H4.30769C3.69565 20.9999 3.10868 20.7525 2.67591 20.3122C2.24313 19.8719 2 19.2747 2 18.6521V7.69553C2 7.07285 2.24313 6.47567 2.67591 6.03537C3.10868 5.59506 3.69565 5.3477 4.30769 5.3477H6.97294L8.28304 3.34837ZM9.33476 4.5651L8.02465 6.56443C7.88199 6.78215 7.64181 6.91292 7.38462 6.91292H4.30769C4.10368 6.91292 3.90802 6.99537 3.76376 7.14214C3.61951 7.28891 3.53846 7.48797 3.53846 7.69553V18.6521C3.53846 18.8596 3.61951 19.0587 3.76376 19.2054C3.90802 19.3522 4.10368 19.4347 4.30769 19.4347H19.6923C19.8963 19.4347 20.092 19.3522 20.2362 19.2054C20.3805 19.0587 20.4615 18.8596 20.4615 18.6521V7.69553C20.4615 7.48797 20.3805 7.28891 20.2362 7.14214C20.092 6.99537 19.8963 6.91292 19.6923 6.91292H16.6154C16.3582 6.91292 16.118 6.78215 15.9753 6.56443L14.6652 4.5651H9.33476Z" fill="white" fill-opacity="0.8"/>
<path fill-rule="evenodd" clip-rule="evenodd" d="M8.73597 9.45955C9.60281 8.58105 10.7765 8.0878 12 8.0878C13.2235 8.0878 14.3972 8.58105 15.264 9.45955L15.2752 9.47109L16.7848 11.0657C17.0795 11.377 17.0704 11.8724 16.7644 12.1722C16.4584 12.4721 15.9715 12.4628 15.6767 12.1515L14.173 10.5631C13.595 9.98018 12.814 9.65302 12 9.65302C11.1835 9.65302 10.4002 9.98219 9.82172 10.5685C9.52074 10.8735 9.03369 10.8725 8.73387 10.5663C8.43405 10.2601 8.43499 9.76458 8.73597 9.45955Z" fill="white" fill-opacity="0.8"/>
<path fill-rule="evenodd" clip-rule="evenodd" d="M7.2356 13.3927C7.54158 13.0929 8.02854 13.1022 8.32326 13.4135L9.82705 15.0019C10.405 15.5848 11.186 15.912 12 15.912C12.8165 15.912 13.5998 15.5828 14.1783 14.9965C14.4793 14.6915 14.9663 14.6924 15.2661 14.9986C15.566 15.3049 15.565 15.8004 15.264 16.1054C14.3972 16.9839 13.2235 17.4772 12 17.4772C10.7765 17.4772 9.60281 16.9839 8.73597 16.1054L8.72482 16.0939L7.2152 14.4993C6.92048 14.188 6.92961 13.6926 7.2356 13.3927Z" fill="white" fill-opacity="0.8"/>
<path fill-rule="evenodd" clip-rule="evenodd" d="M16.7418 8.48879C17.1609 8.55984 17.444 8.96307 17.3742 9.38941L16.9895 11.7372C16.9355 12.0671 16.6814 12.3256 16.3572 12.3805L14.0495 12.7718C13.6305 12.8429 13.2342 12.5549 13.1643 12.1285C13.0945 11.7022 13.3776 11.299 13.7966 11.2279L15.5623 10.9285L15.8566 9.13209C15.9265 8.70575 16.3228 8.41773 16.7418 8.48879Z" fill="white" fill-opacity="0.8"/>
<path fill-rule="evenodd" clip-rule="evenodd" d="M10.8357 13.4364C10.9055 13.8628 10.6224 14.266 10.2034 14.3371L8.43767 14.6365L8.14338 16.4329C8.07354 16.8592 7.67721 17.1472 7.25815 17.0762C6.8391 17.0051 6.55601 16.6019 6.62585 16.1756L7.01047 13.8277C7.0645 13.4979 7.31856 13.2394 7.64277 13.1844L9.95046 12.7931C10.3695 12.7221 10.7658 13.0101 10.8357 13.4364Z" fill="white" fill-opacity="0.8"/>
</svg>
