<svg width="20" height="20" viewBox="0 0 20 20" fill="none" xmlns="http://www.w3.org/2000/svg">
<path d="M3.78033 2.71967C3.48744 2.42678 3.01256 2.42678 2.71967 2.71967C2.42678 3.01256 2.42678 3.48744 2.71967 3.78033L5.5 6.56066V14.875C5.5 15.4963 6.00368 16 6.625 16C7.24632 16 7.75 15.4963 7.75 14.875V8.81066L12.25 13.3107V14.8754C12.25 15.4967 12.7537 16.0004 13.375 16.0004C13.7987 16.0004 14.1676 15.7662 14.3595 15.4202L16.2197 17.2803C16.5126 17.5732 16.9874 17.5732 17.2803 17.2803C17.5732 16.9874 17.5732 16.5126 17.2803 16.2197L3.78033 2.71967Z" fill="#9AD9F5"/>
<path d="M12.25 10.0643L14.5 12.3143V5.12537C14.5 4.50405 13.9963 4.00037 13.375 4.00037C12.7537 4.00037 12.25 4.50405 12.25 5.12537V10.0643Z" fill="#9AD9F5"/>
<path d="M6.24976 4.0641L7.75 5.56434V5.125C7.75 4.50368 7.24632 4 6.625 4C6.49342 4 6.36712 4.02259 6.24976 4.0641Z" fill="#9AD9F5"/>
</svg>
