<svg width="56" height="56" viewBox="0 0 56 56" fill="none" xmlns="http://www.w3.org/2000/svg">
<circle opacity="0.15" cx="28" cy="28" r="28" fill="white"/>
 <g>
  <title>Layer 1</title>
 
  <path id="svg_2" fill="white" d="m34.313,18.3316l-2.3175,-2.5328l-7.5982,0l-2.3174,2.5328l-6.5472,0l0,20.2619l25.3274,0l0,-20.2619l-6.5471,0zm-6.1166,16.4628c-3.4951,0 -6.3318,-2.8367 -6.3318,-6.3319l-2.5327,0l3.1659,-3.1659l3.1659,3.1659l-2.5327,0c0,2.7987 2.2668,5.0655 5.0654,5.0655c0.7345,0 1.431,-0.1646 2.0516,-0.4432l0.9371,0.9371c-0.8992,0.4685 -1.8996,0.7725 -2.9887,0.7725zm5.6987,-3.166l-3.1659,-3.1659l2.5327,0c0,-2.7987 -2.2668,-5.0655 -5.0655,-5.0655c-0.7345,0 -1.431,0.1647 -2.0515,0.4433l-0.9371,-0.9245c0.8991,-0.4812 1.8996,-0.7851 2.9886,-0.7851c3.4952,0 6.3319,2.8366 6.3319,6.3318l2.5327,0l-3.1659,3.1659z"/>
 </g>
</svg>