<svg width="26" height="25" viewBox="0 0 26 25" fill="none" xmlns="http://www.w3.org/2000/svg">
<path fill-rule="evenodd" clip-rule="evenodd" d="M5.93823 6.15666C5.66684 5.88528 5.22685 5.88528 4.95547 6.15666C4.68408 6.42804 4.68408 6.86804 4.95547 7.13942L9.16808 11.352V17.9832L14.647 22.2831C15.3391 22.8263 16.3824 22.3571 16.3824 21.5026V18.5663L21.6624 23.8463C21.9338 24.1177 22.3738 24.1177 22.6451 23.8463C22.9165 23.575 22.9165 23.135 22.6451 22.8636L5.93823 6.15666ZM18.9317 16.9661L20.1587 18.1931C21.4993 17.5963 22.434 16.2525 22.434 14.6903C22.434 12.5739 20.7183 10.8581 18.6019 10.8581C18.1786 10.8581 17.8354 11.2013 17.8354 11.6246C17.8354 12.0479 18.1786 12.391 18.6019 12.391C19.8717 12.391 20.9012 13.4204 20.9012 14.6903C20.9012 15.8482 20.0453 16.8061 18.9317 16.9661ZM21.2969 19.3313L22.4094 20.4438C24.2706 19.2094 25.4997 17.0944 25.4997 14.6912C25.4997 10.8816 22.4114 7.79329 18.6017 7.79329C18.1785 7.79329 17.8353 8.13643 17.8353 8.55972C17.8353 8.98301 18.1785 9.32616 18.6017 9.32616C21.5648 9.32616 23.9668 11.7282 23.9668 14.6912C23.9668 16.6707 22.8949 18.401 21.2969 19.3313ZM11.1934 9.22777L16.3824 14.4168V7.4922C16.3824 6.65469 15.3751 6.18033 14.677 6.68907L11.1934 9.22777ZM4.5 11.1081V17.5788C4.5 17.8021 4.69 17.9832 4.92437 17.9832H8.31934V10.7037H4.92437C4.69 10.7037 4.5 10.8847 4.5 11.1081Z" fill="white"/>
</svg>
