<svg width="20" height="20" viewBox="0 0 20 20" fill="none" xmlns="http://www.w3.org/2000/svg">
<path fill-rule="evenodd" clip-rule="evenodd" d="M11.6883 2.55858C11.8855 2.65535 12.0106 2.85651 12.0106 3.07693V8.47121C12.0106 8.78984 11.7534 9.04814 11.436 9.04814C11.1186 9.04814 10.8613 8.78984 10.8613 8.47121V4.25758L8.93014 5.76768C8.67975 5.96348 8.31867 5.91842 8.12364 5.66705C7.92862 5.41567 7.9735 5.05317 8.22389 4.85738L11.0828 2.62178C11.2561 2.48633 11.491 2.46181 11.6883 2.55858ZM3.57872 3.22697C3.81357 3.01264 4.17701 3.03001 4.3905 3.26578L11.8538 11.5077C11.8588 11.5131 11.8638 11.5185 11.8686 11.5241L15.8838 15.9582C16.0973 16.194 16.08 16.5588 15.8452 16.7732C15.6103 16.9875 15.2469 16.9701 15.0334 16.7344L12.0106 13.3962V16.9231C12.0106 17.1434 11.8856 17.3445 11.6884 17.4413C11.4913 17.5381 11.2564 17.5137 11.0831 17.3785L6.06677 13.4616L2.81596 13.4615C2.81595 13.4615 2.81596 13.4615 2.81596 13.4615C2.51115 13.4615 2.21879 13.3399 2.00326 13.1235C1.78772 12.9071 1.66663 12.6137 1.66663 12.3076V7.69221C1.66663 7.38619 1.78772 7.0927 2.00326 6.87631C2.2188 6.65992 2.51114 6.53835 2.81596 6.53835L5.80075 6.53848L3.54007 4.04195C3.32658 3.80618 3.34388 3.4413 3.57872 3.22697ZM6.83861 7.68463V12.6025L10.8613 15.7435V12.127L6.83861 7.68463ZM5.68928 12.3078V7.69234L2.81596 7.69221V12.3076L5.68928 12.3078ZM15.8348 5.92182C16.059 5.69625 16.4228 5.69583 16.6475 5.92087C17.1819 6.4561 17.6059 7.0919 17.8951 7.79186C18.1844 8.49182 18.3333 9.24219 18.3333 10C18.3333 10.7578 18.1844 11.5082 17.8951 12.2081C17.6059 12.9081 17.1819 13.5439 16.6475 14.0791C16.4228 14.3042 16.059 14.3037 15.8348 14.0782C15.6107 13.8526 15.6111 13.4873 15.8358 13.2623C16.2631 12.8342 16.6022 12.3258 16.8335 11.766C17.0649 11.2062 17.184 10.6061 17.184 10C17.184 9.39394 17.0649 8.79383 16.8335 8.23404C16.6022 7.67425 16.2631 7.16577 15.8358 6.73772C15.6111 6.51267 15.6107 6.14738 15.8348 5.92182ZM13.8015 7.96316C14.0255 7.73742 14.3893 7.73672 14.6142 7.96159C14.8815 8.22893 15.0936 8.54662 15.2383 8.89645C15.3831 9.24628 15.4576 9.62135 15.4576 10.0001C15.4576 10.3789 15.3831 10.754 15.2383 11.1038C15.0936 11.4537 14.8815 11.7714 14.6142 12.0387C14.3893 12.2636 14.0255 12.2629 13.8015 12.0371C13.5775 11.8114 13.5782 11.4461 13.8031 11.2212C13.9632 11.0611 14.0902 10.8708 14.1769 10.6613C14.2636 10.4517 14.3082 10.2271 14.3082 10.0001C14.3082 9.77325 14.2636 9.54858 14.1769 9.33904C14.0902 9.12949 13.9632 8.9392 13.8031 8.77906C13.5782 8.55419 13.5775 8.1889 13.8015 7.96316Z" fill="#BFEBFF"/>
</svg>
