<svg width="80" height="80" viewBox="0 0 80 80" fill="none" xmlns="http://www.w3.org/2000/svg">
<circle cx="40" cy="40" r="37.7359" fill="#313540"/>
<circle cx="40" cy="40" r="39.25" stroke="#208560" stroke-width="1.5"/>
<path fill-rule="evenodd" clip-rule="evenodd" d="M39.6226 25.9282C34.871 25.9282 31.019 29.7481 31.019 34.4602C31.019 39.1723 34.871 42.9922 39.6226 42.9922C44.3743 42.9922 48.2263 39.1723 48.2263 34.4602C48.2263 29.7481 44.3743 25.9282 39.6226 25.9282ZM28.5608 34.4602C28.5608 28.4018 33.5133 23.4905 39.6226 23.4905C45.7319 23.4905 50.6845 28.4018 50.6845 34.4602C50.6845 40.5186 45.7319 45.43 39.6226 45.43C33.5133 45.43 28.5608 40.5186 28.5608 34.4602Z" fill="white" fill-opacity="0.8"/>
<path fill-rule="evenodd" clip-rule="evenodd" d="M39.6226 45.43C36.8176 45.43 34.062 46.1609 31.6329 47.5518C29.2037 48.9428 27.1866 50.9433 25.7843 53.3524C25.445 53.9354 24.6933 54.1353 24.1054 53.7987C23.5175 53.4622 23.316 52.7168 23.6554 52.1338C25.2734 49.354 27.6008 47.0457 30.4037 45.4407C33.2066 43.8358 36.3861 42.9922 39.6226 42.9922C42.8592 42.9922 46.0387 43.8358 48.8416 45.4407C51.6444 47.0457 53.9719 49.354 55.5899 52.1338C55.9292 52.7168 55.7278 53.4622 55.1399 53.7987C54.552 54.1353 53.8003 53.9354 53.4609 53.3524C52.0586 50.9433 50.0415 48.9428 47.6124 47.5518C45.1832 46.1609 42.4276 45.43 39.6226 45.43Z" fill="white" fill-opacity="0.8"/>
</svg>
