<svg width="30" height="30" viewBox="0 0 30 30" fill="none" xmlns="http://www.w3.org/2000/svg">
<path d="M14.644 17.2798C16.2376 17.2798 17.524 15.9934 17.524 14.3998V8.63977C17.524 7.04617 16.2376 5.75977 14.644 5.75977C13.0504 5.75977 11.764 7.04617 11.764 8.63977V14.3998C11.764 15.9934 13.0504 17.2798 14.644 17.2798ZM20.3176 14.3998C19.8472 14.3998 19.4536 14.7454 19.3768 15.2158C18.9832 17.4718 17.0152 19.1998 14.644 19.1998C12.2728 19.1998 10.3048 17.4718 9.91125 15.2158C9.83445 14.7454 9.44085 14.3998 8.97045 14.3998C8.38485 14.3998 7.92405 14.9182 8.01045 15.4942C8.48085 18.3742 10.7848 20.6302 13.684 21.043V23.0398C13.684 23.5678 14.116 23.9998 14.644 23.9998C15.172 23.9998 15.604 23.5678 15.604 23.0398V21.043C18.5032 20.6302 20.8072 18.3742 21.2776 15.4942C21.3736 14.9182 20.9032 14.3998 20.3176 14.3998Z" fill="white"/>
<path fill-rule="evenodd" clip-rule="evenodd" d="M7.70708 7.29292C8.0976 6.9024 8.73077 6.9024 9.12129 7.29292L23.2634 21.4351C23.6539 21.8256 23.6539 22.4587 23.2634 22.8493C22.8729 23.2398 22.2397 23.2398 21.8492 22.8493L7.70708 8.70714C7.31655 8.31661 7.31655 7.68345 7.70708 7.29292Z" fill="#454545"/>
<path fill-rule="evenodd" clip-rule="evenodd" d="M6.70696 7.29304C7.09748 6.90252 7.73065 6.90252 8.12117 7.29304L22.2633 21.4352C22.6538 21.8257 22.6538 22.4589 22.2633 22.8494C21.8728 23.2399 21.2396 23.2399 20.8491 22.8494L6.70696 8.70726C6.31643 8.31673 6.31643 7.68357 6.70696 7.29304Z" fill="white"/>
</svg>
