<svg width="24" height="24" viewBox="0 0 24 24" fill="none" xmlns="http://www.w3.org/2000/svg">
<path fill-rule="evenodd" clip-rule="evenodd" d="M5.41044 12.0044C5.80964 11.9607 6.16928 12.2432 6.21372 12.6353C6.33238 13.682 6.74331 14.6763 7.40113 15.5081C8.05894 16.3399 8.93805 16.977 9.94135 17.349C10.9446 17.721 12.0331 17.8134 13.0865 17.616C14.1399 17.4186 15.1173 16.9391 15.9107 16.2305C16.2078 15.9651 16.6678 15.9865 16.938 16.2784C17.2083 16.5702 17.1865 17.022 16.8893 17.2874C15.8976 18.1732 14.6759 18.7725 13.3591 19.0193C12.0423 19.266 10.6818 19.1505 9.42764 18.6855C8.17351 18.2205 7.07464 17.4242 6.25237 16.3844C5.4301 15.3446 4.91644 14.1018 4.76811 12.7933C4.72366 12.4013 5.01125 12.048 5.41044 12.0044Z" fill="#FC8D4C"/>
<path fill-rule="evenodd" clip-rule="evenodd" d="M8.36364 7.35715C8.7653 7.35715 9.09091 7.67694 9.09091 8.07143V12C9.09091 12.7578 9.3974 13.4845 9.94296 14.0203C10.4885 14.5561 11.2285 14.8571 12 14.8571L12.0028 14.8572C12.7249 14.8598 13.4217 14.5953 13.9542 14.1162C14.2504 13.8497 14.7104 13.8695 14.9817 14.1604C15.253 14.4512 15.2329 14.9031 14.9367 15.1696C14.1349 15.891 13.086 16.2894 11.9986 16.2857H12M11.9986 16.2857C10.8418 16.2854 9.73246 15.8339 8.91445 15.0305C8.09611 14.2267 7.63637 13.1366 7.63637 12V8.07143C7.63637 7.67694 7.96198 7.35715 8.36364 7.35715" fill="#FC8D4C"/>
<path fill-rule="evenodd" clip-rule="evenodd" d="M12 17.7143C12.4017 17.7143 12.7273 18.0341 12.7273 18.4286V21.2857C12.7273 21.6802 12.4017 22 12 22C11.5983 22 11.2727 21.6802 11.2727 21.2857V18.4286C11.2727 18.0341 11.5983 17.7143 12 17.7143Z" fill="#FC8D4C"/>
<path fill-rule="evenodd" clip-rule="evenodd" d="M4.23806 3.61433C4.53527 3.34897 4.99523 3.37048 5.26542 3.66238L19.8109 19.3767C20.081 19.6686 20.0591 20.1203 19.7619 20.3857C19.4647 20.651 19.0048 20.6295 18.7346 20.3376L4.18914 4.62334C3.91895 4.33144 3.94086 3.8797 4.23806 3.61433Z" fill="#FC8D4C"/>
<path fill-rule="evenodd" clip-rule="evenodd" d="M11.9988 3.42858C11.5034 3.42775 11.0161 3.55197 10.5836 3.78932C10.1511 4.02667 9.78805 4.36919 9.52914 4.78401C9.31923 5.12034 8.87146 5.22586 8.52901 5.0197C8.18657 4.81353 8.07913 4.37375 8.28904 4.03742C8.67821 3.41389 9.224 2.89903 9.87404 2.54226C10.5239 2.18558 11.2562 1.99886 12.0006 2.00001C13.1577 2.00017 14.2674 2.45168 15.0856 3.25526C15.9039 4.05899 16.3636 5.14908 16.3636 6.28572V11.6786C16.3636 12.0731 16.038 12.3929 15.6364 12.3929C15.2347 12.3929 14.9091 12.0731 14.9091 11.6786V6.28572C14.9091 5.52796 14.6026 4.80123 14.057 4.26541C13.5115 3.7296 12.7715 3.42858 12 3.42858L11.9988 3.42858Z" fill="#FC8D4C"/>
<path fill-rule="evenodd" clip-rule="evenodd" d="M18.5908 12.0045C18.9899 12.0488 19.2769 12.4025 19.2318 12.7945C19.1606 13.4128 19.0079 14.0194 18.7775 14.5991C18.6314 14.9665 18.2096 15.1481 17.8355 15.0047C17.4613 14.8612 17.2764 14.447 17.4225 14.0795C17.6071 13.6152 17.7294 13.1293 17.7864 12.6341C17.8315 12.2421 18.1917 11.9602 18.5908 12.0045Z" fill="#FC8D4C"/>
</svg>
