<svg width="56" height="56" viewBox="0 0 56 56" fill="none" xmlns="http://www.w3.org/2000/svg">
<circle opacity="0.15" cx="28" cy="28" r="28" fill="white"/>
<path d="M19.3601 33.3541C18.8078 33.3541 18.3601 33.8018 18.3601 34.3541C18.3601 34.9064 18.8078 35.3541 19.3601 35.3541L19.3601 33.3541ZM37.6001 34.3541L38.3002 35.0682C38.492 34.8801 38.6001 34.6227 38.6001 34.3541C38.6001 34.0854 38.492 33.8281 38.3002 33.64L37.6001 34.3541ZM32.5402 27.993C32.1458 27.6063 31.5127 27.6126 31.126 28.007C30.7394 28.4013 30.7457 29.0345 31.14 29.4211L32.5402 27.993ZM31.14 39.2871C30.7457 39.6737 30.7394 40.3068 31.126 40.7012C31.5127 41.0956 32.1458 41.1019 32.5402 40.7152L31.14 39.2871ZM19.3601 35.3541L37.6001 35.3541L37.6001 33.3541L19.3601 33.3541L19.3601 35.3541ZM38.3002 33.64L32.5402 27.993L31.14 29.4211L36.9 35.0682L38.3002 33.64ZM36.9 33.64L31.14 39.2871L32.5402 40.7152L38.3002 35.0682L36.9 33.64Z" fill="white"/>
<path d="M36.6399 22.6459C37.1922 22.6459 37.6399 22.1982 37.6399 21.6459C37.6399 21.0936 37.1922 20.6459 36.6399 20.6459L36.6399 22.6459ZM18.3999 21.6459L17.6998 20.9318C17.508 21.1199 17.3999 21.3773 17.3999 21.6459C17.3999 21.9146 17.508 22.1719 17.6998 22.36L18.3999 21.6459ZM23.4598 28.007C23.8542 28.3937 24.4873 28.3874 24.874 27.993C25.2606 27.5987 25.2543 26.9655 24.86 26.5789L23.4598 28.007ZM24.86 16.7129C25.2543 16.3263 25.2606 15.6932 24.874 15.2988C24.4873 14.9044 23.8542 14.8981 23.4598 15.2848L24.86 16.7129ZM36.6399 20.6459L18.3999 20.6459L18.3999 22.6459L36.6399 22.6459L36.6399 20.6459ZM17.6998 22.36L23.4598 28.007L24.86 26.5789L19.1 20.9318L17.6998 22.36ZM19.1 22.36L24.86 16.7129L23.4598 15.2848L17.6998 20.9318L19.1 22.36Z" fill="white"/>
</svg>
