<svg width="20" height="20" viewBox="0 0 20 20" fill="none" xmlns="http://www.w3.org/2000/svg">
<path d="M15.0489 13.8996C15.2454 13.6618 15.5909 13.6098 15.8484 13.7886C16.1228 13.9795 16.1938 14.361 16.0067 14.6408L15.8672 14.842C14.4 16.9005 12.0175 18.241 9.32747 18.241C8.01371 18.241 6.77284 17.9204 5.67591 17.3529L5.27933 18.0333L5.19625 17.9822H5.19547L5.27933 18.0333C5.16019 18.2373 4.94355 18.3421 4.72599 18.3288C4.42199 18.3659 4.13463 18.1623 4.06763 17.8513L3.64283 15.8786C3.60862 15.7198 3.63749 15.5532 3.72356 15.4162C3.80961 15.2793 3.94546 15.1828 4.10133 15.1479L6.03723 14.715C6.27152 14.6627 6.51447 14.7572 6.65484 14.9554C6.79502 15.1536 6.8064 15.4179 6.68384 15.6279L6.29352 16.2955C7.20852 16.7551 8.23776 17.0143 9.32747 17.0143C11.6893 17.0143 13.773 15.801 15.0113 13.95L15.0489 13.8996ZM1.25 10.0103C1.25001 7.22431 2.60854 4.76279 4.68602 3.27389L4.2816 2.59985C4.15582 2.39028 4.16536 2.12437 4.30511 1.92421C4.44487 1.72409 4.68799 1.62828 4.9235 1.68063L6.86018 2.11109C7.01614 2.14576 7.15251 2.24174 7.23874 2.37863C7.32497 2.51553 7.35428 2.6821 7.32025 2.84104L6.8978 4.81445L6.88134 4.87514C6.7943 5.146 6.53406 5.31888 6.25668 5.29362C6.06709 5.29948 5.87944 5.21701 5.75899 5.05563L5.72451 5.00372L5.31538 4.32329C3.582 5.59526 2.45387 7.6688 2.45386 10.0103C2.45386 11.3237 2.80787 12.5514 3.42416 13.601L3.55113 13.8078L3.5817 13.8621C3.72082 14.1389 3.63412 14.4834 3.37243 14.6559C3.1107 14.8284 2.76682 14.7677 2.57613 14.525L2.54008 14.4739L2.39116 14.2303C1.66648 12.9959 1.25 11.5519 1.25 10.0103ZM11.2665 11.6283C11.2663 10.5278 10.3911 9.6359 9.31101 9.63576C8.23085 9.63576 7.35491 10.5277 7.35474 11.6283V12.9149H11.2665V11.6283ZM16.2011 10.0103C16.2011 6.26295 13.3129 3.2026 9.68095 3.01514L9.32747 3.00635L9.26555 3.00316C8.9622 2.97157 8.72554 2.71045 8.72554 2.393C8.72556 2.05428 8.99505 1.77966 9.32747 1.77966L9.74287 1.79004C14.0109 2.01034 17.4049 5.60663 17.4049 10.0103C17.4049 10.162 17.3996 10.3126 17.3916 10.4623L18.2647 10.6388C18.5047 10.6872 18.6922 10.8789 18.7389 11.1236C18.7856 11.3682 18.6824 11.6172 18.4779 11.7537L16.8187 12.8598C16.6851 12.9488 16.5219 12.9802 16.3657 12.9469C16.2095 12.9135 16.0729 12.8178 15.9855 12.6817L14.9243 11.0286L14.9008 10.9918L14.8695 10.9375C14.729 10.6615 14.814 10.3168 15.0748 10.1429C15.2673 10.0146 15.5038 10.0153 15.6924 10.1205L16.1972 10.222C16.1992 10.1517 16.2011 10.0811 16.2011 10.0103ZM10.4138 7.30217C10.4138 6.69673 9.92598 6.19541 9.31101 6.19527C8.69592 6.19527 8.20747 6.69665 8.20747 7.30217C8.20757 7.8699 8.63678 8.34637 9.19737 8.40348L9.31101 8.40907L9.42466 8.40348C9.985 8.34614 10.4137 7.86973 10.4138 7.30217ZM11.6176 7.30217C11.6176 7.92312 11.377 8.48336 10.9883 8.90023C11.8784 9.46967 12.4703 10.4783 12.4704 11.6283V13.5283C12.4704 13.867 12.2009 14.1416 11.8684 14.1416H6.75281C6.42039 14.1416 6.15088 13.867 6.15088 13.5283V11.6283C6.15099 10.4787 6.74246 9.46977 7.63219 8.90023C7.24378 8.48342 7.00366 7.92285 7.00361 7.30217C7.00361 6.00757 8.04249 4.96858 9.31101 4.96858C10.5794 4.96872 11.6176 6.00765 11.6176 7.30217Z" fill="#9AD9F5"/>
</svg>
