<svg width="56" height="56" viewBox="0 0 56 56" fill="none" xmlns="http://www.w3.org/2000/svg">
<circle opacity="0.15" cx="28" cy="28" r="28" fill="white"/>
<path fill-rule="evenodd" clip-rule="evenodd" d="M19.3335 19.9091C19.3335 18.8591 20.2522 18 21.3751 18C22.498 18 23.4168 18.8591 23.4168 19.9091C23.4168 20.9591 22.498 21.8182 21.3751 21.8182C20.2522 21.8182 19.3335 20.9591 19.3335 19.9091ZM19.3335 25.6363C19.3335 24.5863 20.2522 23.7272 21.3751 23.7272C22.498 23.7272 23.4168 24.5863 23.4168 25.6363C23.4168 26.6863 22.498 27.5454 21.3751 27.5454C20.2522 27.5454 19.3335 26.6863 19.3335 25.6363ZM21.3751 29.4546C20.2522 29.4546 19.3335 30.3137 19.3335 31.3637C19.3335 32.4137 20.2522 33.2727 21.3751 33.2727C22.498 33.2727 23.4168 32.4137 23.4168 31.3637C23.4168 30.3137 22.498 29.4546 21.3751 29.4546ZM35.6665 19.9091C35.6665 20.9591 34.7478 21.8182 33.6249 21.8182C32.502 21.8182 31.5832 20.9591 31.5832 19.9091C31.5832 18.8591 32.502 18 33.6249 18C34.7478 18 35.6665 18.8591 35.6665 19.9091ZM27.5 29.4548C26.3771 29.4548 25.4584 30.3138 25.4584 31.3638C25.4584 32.4138 26.3771 33.2729 27.5 33.2729C28.6229 33.2729 29.5416 32.4138 29.5416 31.3638C29.5416 30.3138 28.6229 29.4548 27.5 29.4548ZM31.5832 31.3638C31.5832 30.3138 32.502 29.4548 33.6249 29.4548C34.7478 29.4548 35.6665 30.3138 35.6665 31.3638C35.6665 32.4138 34.7478 33.2729 33.6249 33.2729C32.502 33.2729 31.5832 32.4138 31.5832 31.3638ZM33.6249 23.7262C32.502 23.7262 31.5832 24.5853 31.5832 25.6353C31.5832 26.6853 32.502 27.5444 33.6249 27.5444C34.7478 27.5444 35.6665 26.6853 35.6665 25.6353C35.6665 24.5853 34.7478 23.7262 33.6249 23.7262ZM25.4584 25.6353C25.4584 24.5853 26.3771 23.7262 27.5 23.7262C28.6229 23.7262 29.5416 24.5853 29.5416 25.6353C29.5416 26.6853 28.6229 27.5444 27.5 27.5444C26.3771 27.5444 25.4584 26.6853 25.4584 25.6353ZM27.5 18C26.3771 18 25.4584 18.8591 25.4584 19.9091C25.4584 20.9591 26.3771 21.8182 27.5 21.8182C28.6229 21.8182 29.5416 20.9591 29.5416 19.9091C29.5416 18.8591 28.6229 18 27.5 18ZM25.4584 37.0901C25.4584 36.0401 26.3771 35.181 27.5 35.181C28.6229 35.181 29.5416 36.0401 29.5416 37.0901C29.5416 38.1401 28.6229 38.9991 27.5 38.9991C26.3771 38.9991 25.4584 38.1401 25.4584 37.0901Z" fill="white"/>
</svg>
