<svg width="24" height="24" viewBox="0 0 24 24" fill="none" xmlns="http://www.w3.org/2000/svg">
<path d="M4.5 3.81727C4.5 2.81723 5.34375 1.99902 6.375 1.99902C7.40626 1.99902 8.25001 2.81723 8.25001 3.81727C8.25001 4.8173 7.40626 5.63551 6.375 5.63551C5.34375 5.63551 4.5 4.8173 4.5 3.81727Z" fill="white" fill-opacity="0.8"/>
<path d="M4.5 9.27199C4.5 8.27195 5.34375 7.45374 6.375 7.45374C7.40626 7.45374 8.25001 8.27195 8.25001 9.27199C8.25001 10.272 7.40626 11.0902 6.375 11.0902C5.34375 11.0902 4.5 10.272 4.5 9.27199Z" fill="white" fill-opacity="0.8"/>
<path d="M6.375 12.9086C5.34375 12.9086 4.5 13.7268 4.5 14.7268C4.5 15.7269 5.34375 16.5451 6.375 16.5451C7.40626 16.5451 8.25001 15.7269 8.25001 14.7268C8.25001 13.7268 7.40626 12.9086 6.375 12.9086Z" fill="white" fill-opacity="0.8"/>
<path d="M19.5 3.81727C19.5 4.8173 18.6562 5.63551 17.625 5.63551C16.5937 5.63551 15.75 4.8173 15.75 3.81727C15.75 2.81723 16.5937 1.99902 17.625 1.99902C18.6562 1.99902 19.5 2.81723 19.5 3.81727Z" fill="white" fill-opacity="0.8"/>
<path d="M12 12.9088C10.9687 12.9088 10.125 13.727 10.125 14.727C10.125 15.727 10.9687 16.5452 12 16.5452C13.0313 16.5452 13.875 15.727 13.875 14.727C13.875 13.727 13.0313 12.9088 12 12.9088Z" fill="white" fill-opacity="0.8"/>
<path d="M15.75 14.727C15.75 13.727 16.5937 12.9088 17.625 12.9088C18.6562 12.9088 19.5 13.727 19.5 14.727C19.5 15.727 18.6562 16.5452 17.625 16.5452C16.5937 16.5452 15.75 15.727 15.75 14.727Z" fill="white" fill-opacity="0.8"/>
<path d="M17.625 7.4528C16.5937 7.4528 15.75 8.27101 15.75 9.27105C15.75 10.2711 16.5937 11.0893 17.625 11.0893C18.6562 11.0893 19.5 10.2711 19.5 9.27105C19.5 8.27101 18.6562 7.4528 17.625 7.4528Z" fill="white" fill-opacity="0.8"/>
<path d="M10.125 9.27105C10.125 8.27101 10.9687 7.4528 12 7.4528C13.0313 7.4528 13.875 8.27101 13.875 9.27105C13.875 10.2711 13.0313 11.0893 12 11.0893C10.9687 11.0893 10.125 10.2711 10.125 9.27105Z" fill="white" fill-opacity="0.8"/>
<path d="M12 1.99902C10.9687 1.99902 10.125 2.81723 10.125 3.81727C10.125 4.8173 10.9687 5.63551 12 5.63551C13.0313 5.63551 13.875 4.8173 13.875 3.81727C13.875 2.81723 13.0313 1.99902 12 1.99902Z" fill="white" fill-opacity="0.8"/>
<path d="M10.125 20.1808C10.125 19.1807 10.9687 18.3625 12 18.3625C13.0313 18.3625 13.875 19.1807 13.875 20.1808C13.875 21.1808 13.0313 21.999 12 21.999C10.9687 21.999 10.125 21.1808 10.125 20.1808Z" fill="white" fill-opacity="0.8"/>
</svg>
