<svg width="30" height="30" viewBox="0 0 30 30" fill="none" xmlns="http://www.w3.org/2000/svg">
<path d="M7.7351 18.7453C8.52477 17.9734 9.40919 17.3558 10.3505 16.8927C10.6411 16.7445 10.8369 16.4543 10.8432 16.1146L10.8432 13.3975C13.5407 12.5392 16.4656 12.533 19.1694 13.3975L19.1757 16.1208C19.1631 16.4543 19.3589 16.7445 19.6495 16.8927C20.5908 17.3558 21.4752 17.9734 22.2649 18.7453C22.6123 19.0849 23.1809 19.0849 23.5284 18.7453L25.7394 16.5839C26.0869 16.2443 26.0869 15.6885 25.7394 15.3489C19.8075 9.55037 10.1925 9.55037 4.26059 15.3489C3.91314 15.6885 3.91314 16.2443 4.26059 16.5839L6.47164 18.7453C6.8191 19.0849 7.38765 19.0849 7.7351 18.7453Z" fill="white"/>
</svg>
