<svg width="40" height="40" viewBox="0 0 40 40" fill="none" xmlns="http://www.w3.org/2000/svg">
<path fill-rule="evenodd" clip-rule="evenodd" d="M19.7203 21.6662C19.8013 21.7473 19.8419 21.8404 19.8419 21.9457C19.8419 22.0511 19.8013 22.1442 19.7203 22.2253L15.6856 26.26L17.4356 28.01C17.5895 28.1639 17.6665 28.3462 17.6665 28.5569C17.6665 28.7675 17.5895 28.9498 17.4356 29.1037C17.2817 29.2577 17.0994 29.3346 16.8887 29.3346H11.4443C11.2336 29.3346 11.0513 29.2577 10.8974 29.1037C10.7435 28.9498 10.6665 28.7675 10.6665 28.5569V23.1124C10.6665 22.9018 10.7435 22.7195 10.8974 22.5655C11.0513 22.4116 11.2336 22.3346 11.4443 22.3346C11.6549 22.3346 11.8372 22.4116 11.9912 22.5655L13.7412 24.3155L17.7759 20.2808C17.8569 20.1998 17.9501 20.1593 18.0554 20.1593C18.1607 20.1593 18.2539 20.1998 18.3349 20.2808L19.7203 21.6662ZM29.3332 11.4457V16.8902C29.3332 17.1008 29.2562 17.2831 29.1023 17.4371C28.9483 17.591 28.766 17.668 28.5554 17.668C28.3447 17.668 28.1625 17.591 28.0085 17.4371L26.2585 15.6871L22.2238 19.7218C22.1428 19.8028 22.0496 19.8433 21.9443 19.8433C21.839 19.8433 21.7458 19.8028 21.6648 19.7218L20.2794 18.3364C20.1983 18.2554 20.1578 18.1622 20.1578 18.0569C20.1578 17.9515 20.1983 17.8584 20.2794 17.7773L24.3141 13.7426L22.5641 11.9926C22.4101 11.8387 22.3332 11.6564 22.3332 11.4457C22.3332 11.2351 22.4101 11.0528 22.5641 10.8989C22.718 10.7449 22.9003 10.668 23.1109 10.668H28.5554C28.766 10.668 28.9483 10.7449 29.1023 10.8989C29.2562 11.0528 29.3332 11.2351 29.3332 11.4457Z" fill="#B4B4B4"/>
</svg>
