<svg width="20" height="20" viewBox="0 0 20 20" fill="none" xmlns="http://www.w3.org/2000/svg">
<path fill-rule="evenodd" clip-rule="evenodd" d="M10 5.99984C7.84614 5.99984 5.7804 6.84234 4.25678 8.34217C3.8208 8.77227 3.55885 9.34415 3.51994 9.95079C3.48106 10.5569 3.66752 11.1562 4.04443 11.6368L4.04589 11.6362L7.04169 10.4569C7.04332 10.4562 7.04476 10.455 7.04593 10.4537C7.04707 10.4523 7.0479 10.4507 7.04838 10.449L7.41665 8.60373C7.45284 8.43526 7.53264 8.27886 7.64822 8.14967C7.76365 8.02064 7.91091 7.92313 8.07577 7.86656C9.31461 7.43986 10.6634 7.43748 11.9037 7.85982L11.9081 7.86129C12.0725 7.91891 12.2189 8.0176 12.333 8.14767C12.4466 8.27706 12.5243 8.43311 12.5586 8.60072L12.9502 10.4487C12.9507 10.4503 12.9515 10.4518 12.9526 10.4531C12.9538 10.4545 12.9553 10.4557 12.957 10.4564L15.9556 11.6368C16.3325 11.1563 16.5189 10.5569 16.4801 9.95079C16.4412 9.34419 16.1792 8.77235 15.7433 8.34225C14.2197 6.84237 12.1539 5.99984 10 5.99984ZM3.53934 7.63499C5.25327 5.94776 7.57707 5 10 5C12.4229 5 14.7467 5.94776 16.4607 7.63499C17.0712 8.23717 17.4384 9.03828 17.4929 9.88773C17.5474 10.7367 17.2861 11.5761 16.758 12.249C16.623 12.4224 16.4337 12.5472 16.2194 12.6039C16.006 12.6605 15.7796 12.6463 15.5751 12.5637L12.5736 11.3822C12.4202 11.3204 12.2843 11.2231 12.1774 11.0984C12.0705 10.9737 11.9957 10.8254 11.9596 10.6661L11.958 10.6591L11.5645 8.8022C10.5422 8.45599 9.43114 8.45885 8.41048 8.81046L8.40965 8.81075L8.04196 10.6532C8.00762 10.8147 7.93369 10.9655 7.82667 11.0925C7.71964 11.2194 7.58274 11.3187 7.42788 11.3816L7.42274 11.3837L4.42494 12.5637C4.22045 12.6463 3.99405 12.6605 3.78055 12.6039C3.56632 12.5472 3.37706 12.4224 3.24208 12.249C2.71392 11.5761 2.45262 10.7367 2.50708 9.88773C2.56156 9.03828 2.92877 8.23717 3.53934 7.63499ZM3.9107 14.5001C3.9107 14.224 4.13789 14.0002 4.41814 14.0002H15.5819C15.8621 14.0002 16.0893 14.224 16.0893 14.5001C16.0893 14.7762 15.8621 15 15.5819 15H4.41814C4.13789 15 3.9107 14.7762 3.9107 14.5001Z" fill="white"/>
</svg>
