<svg width="30" height="30" viewBox="0 0 30 30" fill="none" xmlns="http://www.w3.org/2000/svg">
<path d="M15 10C15.8284 10 16.5 9.32843 16.5 8.5C16.5 7.67157 15.8284 7 15 7C14.1716 7 13.5 7.67157 13.5 8.5C13.5 9.32843 14.1716 10 15 10Z" fill="white"/>
<path d="M15 16C15.8284 16 16.5 15.3284 16.5 14.5C16.5 13.6716 15.8284 13 15 13C14.1716 13 13.5 13.6716 13.5 14.5C13.5 15.3284 14.1716 16 15 16Z" fill="white"/>
<path d="M16.5 20.5C16.5 21.3284 15.8284 22 15 22C14.1716 22 13.5 21.3284 13.5 20.5C13.5 19.6716 14.1716 19 15 19C15.8284 19 16.5 19.6716 16.5 20.5Z" fill="white"/>
</svg>
