<svg width="30" height="30" viewBox="0 0 30 30" fill="none" xmlns="http://www.w3.org/2000/svg">
<path d="M17.5626 9H8.90757C8.12891 9 7.5 9.6875 7.5 10.5V19.5312C7.5 20.3438 8.12891 21 8.90757 21H17.5626C18.3413 21 19.0001 20.3438 19.0001 19.5312V10.5C19.0001 9.6875 18.3413 9 17.5626 9Z" fill="white"/>
<path d="M22.5656 10.7223L19.5 12.9545V17.5657L22.5656 19.7978C23.1562 20.209 24 19.7684 24 19.0342V11.4859C24 10.7517 23.1562 10.3111 22.5656 10.7223Z" fill="white"/>
<path d="M17.5626 9H8.90757C8.12891 9 7.5 9.6875 7.5 10.5V19.5312C7.5 20.3438 8.12891 21 8.90757 21H17.5626C18.3413 21 19.0001 20.3438 19.0001 19.5312V10.5C19.0001 9.6875 18.3413 9 17.5626 9Z" fill="#D8D8D8"/>
<path d="M22.5656 10.7223L19.5 12.9545V17.5657L22.5656 19.7978C23.1562 20.209 24 19.7684 24 19.0342V11.4859C24 10.7517 23.1562 10.3111 22.5656 10.7223Z" fill="#D8D8D8"/>
<path d="M17.5626 9H8.90757C8.12891 9 7.5 9.6875 7.5 10.5V19.5312C7.5 20.3438 8.12891 21 8.90757 21H17.5626C18.3413 21 19.0001 20.3438 19.0001 19.5312V10.5C19.0001 9.6875 18.3413 9 17.5626 9Z" fill="#B4B4B4"/>
<path d="M22.5656 10.7223L19.5 12.9545V17.5657L22.5656 19.7978C23.1562 20.209 24 19.7684 24 19.0342V11.4859C24 10.7517 23.1562 10.3111 22.5656 10.7223Z" fill="#B4B4B4"/>
<path d="M17.5626 9H8.90757C8.12891 9 7.5 9.6875 7.5 10.5V19.5312C7.5 20.3438 8.12891 21 8.90757 21H17.5626C18.3413 21 19.0001 20.3438 19.0001 19.5312V10.5C19.0001 9.6875 18.3413 9 17.5626 9Z" fill="#545454"/>
<path d="M22.5656 10.7223L19.5 12.9545V17.5657L22.5656 19.7978C23.1562 20.209 24 19.7684 24 19.0342V11.4859C24 10.7517 23.1562 10.3111 22.5656 10.7223Z" fill="#545454"/>
</svg>
