<svg width="20" height="20" viewBox="0 0 20 20" fill="none" xmlns="http://www.w3.org/2000/svg">
<path d="M13.8888 5.78708V14.213C13.8888 14.5322 13.7718 14.8384 13.5634 15.0641C13.355 15.2899 13.0724 15.4167 12.7777 15.4167H2.77776C2.48308 15.4167 2.20046 15.2899 1.99209 15.0641C1.78372 14.8384 1.66666 14.5322 1.66666 14.213V5.78708C1.66666 5.46784 1.78372 5.16167 1.99209 4.93593C2.20046 4.71019 2.48308 4.58337 2.77776 4.58337H12.7777C13.0724 4.58337 13.355 4.71019 13.5634 4.93593C13.7718 5.16167 13.8888 5.46784 13.8888 5.78708ZM17.9166 5.80589C17.8382 5.78511 17.7567 5.78254 17.6773 5.79836C17.5979 5.81418 17.5226 5.84803 17.4562 5.89767L15.1235 7.5821C15.0855 7.6096 15.0543 7.64686 15.0327 7.69057C15.0112 7.73427 14.9999 7.78307 14.9999 7.83262V12.1675C14.9999 12.217 15.0112 12.2658 15.0327 12.3095C15.0543 12.3532 15.0855 12.3905 15.1235 12.418L17.4694 14.1122C17.5572 14.1756 17.6598 14.2107 17.7654 14.2132C17.8709 14.2158 17.9749 14.1857 18.0652 14.1265C18.1487 14.0689 18.2173 13.9891 18.2642 13.8947C18.3111 13.8002 18.3349 13.6943 18.3332 13.5871V6.38893C18.3333 6.25545 18.2924 6.12573 18.217 6.02019C18.1416 5.91464 18.0359 5.83926 17.9166 5.80589Z" fill="#8DCAE5"/>
</svg>
