<svg width="36" height="36" viewBox="0 0 36 36" fill="none" xmlns="http://www.w3.org/2000/svg">
<g clip-path="url(#clip0_2197_19149)">
<path fill-rule="evenodd" clip-rule="evenodd" d="M7.62425 8.29289C7.23373 7.90237 6.60056 7.90237 6.21004 8.29289C5.81951 8.68342 5.81951 9.31658 6.21004 9.70711L9.00262 12.4997C9.00085 12.5329 8.99995 12.5664 8.99995 12.6V23.4375C8.99995 24.4125 9.75465 25.2 10.689 25.2H21.0751C21.2619 25.2 21.4431 25.1685 21.6132 25.1103L23.4634 26.9605C23.854 27.351 24.4871 27.351 24.8777 26.9605C25.2682 26.57 25.2682 25.9368 24.8777 25.5463L7.62425 8.29289ZM22.8001 21.0687V12.6C22.8001 11.625 22.0095 10.8 21.0751 10.8H12.5314L22.8001 21.0687ZM27.0787 12.8691L23.4 15.5477V21.0811L27.0787 23.7597C27.7875 24.2532 28.7999 23.7245 28.7999 22.8434V13.7855C28.7999 12.9043 27.7875 12.3757 27.0787 12.8691Z" fill="white"/>
</g>
<defs>
<clipPath id="clip0_2197_19149">
<rect width="36" height="36" fill="white"/>
</clipPath>
</defs>
</svg>
