<svg width="20" height="20" viewBox="0 0 20 20" fill="none" xmlns="http://www.w3.org/2000/svg">
<path d="M18.0396 6.1833C17.951 6.13585 17.8512 6.1133 17.7508 6.11807C17.6504 6.12283 17.5532 6.15473 17.4695 6.21036L15 7.8522V6.1139C15 5.81944 14.883 5.53703 14.6746 5.32881C14.4662 5.12059 14.1836 5.00361 13.8889 5.00361H8.40696C8.25962 5.00361 8.11831 5.0621 8.01413 5.16621C7.90994 5.27032 7.85141 5.41152 7.85141 5.55876C7.85141 5.70599 7.90994 5.84719 8.01413 5.9513C8.11831 6.05541 8.25962 6.1139 8.40696 6.1139H13.8889V12.1948C13.8889 12.3421 13.9474 12.4833 14.0516 12.5874C14.1558 12.6915 14.2971 12.75 14.4445 12.75C14.5918 12.75 14.7331 12.6915 14.8373 12.5874C14.9415 12.4833 15 12.3421 15 12.1948V12.1511L17.4695 13.7964C17.5612 13.8559 17.6684 13.8871 17.7778 13.8859C17.9251 13.8859 18.0664 13.8274 18.1706 13.7233C18.2748 13.6192 18.3334 13.478 18.3334 13.3308V6.66905C18.3327 6.56916 18.305 6.47132 18.2533 6.38583C18.2016 6.30033 18.1278 6.23037 18.0396 6.1833ZM17.2222 12.2934L15 10.8132V9.18663L17.2222 7.70995V12.2934ZM4.30002 3.51999C4.25123 3.46503 4.19201 3.4203 4.1258 3.38838C4.05958 3.35647 3.98768 3.338 3.91427 3.33405C3.84086 3.33011 3.7674 3.34076 3.69814 3.36539C3.62888 3.39003 3.5652 3.42815 3.51079 3.47756C3.45638 3.52697 3.41233 3.58667 3.38119 3.65322C3.35004 3.71976 3.33243 3.79182 3.32936 3.86522C3.32629 3.93862 3.33783 4.0119 3.36331 4.08081C3.38879 4.14972 3.42771 4.21289 3.4778 4.26666L4.14794 5.00361H2.7778C2.48311 5.00361 2.2005 5.12059 1.99212 5.32881C1.78375 5.53703 1.66669 5.81944 1.66669 6.1139V13.8859C1.66669 14.1804 1.78375 14.4628 1.99212 14.671C2.2005 14.8792 2.48311 14.9962 2.7778 14.9962H13.2389L14.5889 16.4799C14.6377 16.5348 14.6969 16.5795 14.7631 16.6115C14.8293 16.6434 14.9012 16.6618 14.9747 16.6658C15.0481 16.6697 15.1215 16.6591 15.1908 16.6344C15.2601 16.6098 15.3237 16.5717 15.3781 16.5223C15.4325 16.4729 15.4766 16.4132 15.5077 16.3466C15.5389 16.2801 15.5565 16.208 15.5596 16.1346C15.5626 16.0612 15.5511 15.9879 15.5256 15.919C15.5001 15.8501 15.4612 15.7869 15.4111 15.7332L4.30002 3.51999ZM2.7778 13.8859V6.1139H5.15835L12.2292 13.8859H2.7778Z" fill="#8DCAE5"/>
</svg>
