<svg viewBox="0 0 30 30" width="30" height="30" xmlns="http://www.w3.org/2000/svg" class="bepo-icon-svg_5170XkH2 bepo-icon-svg--prevent-pointer-events_5170G6lu" fill="none"><path fill-rule="evenodd" clip-rule="evenodd" d="M22.2 9.60078H15L13.731 8.33178C13.389 7.98978 12.93 7.80078 12.453 7.80078H7.8C6.81 7.80078 6.009 8.61078 6.009 9.60078L6 20.4008C6 21.3908 6.81 22.2008 7.8 22.2008H22.2C23.19 22.2008 24 21.3908 24 20.4008V11.4008C24 10.4108 23.19 9.60078 22.2 9.60078ZM15.9 18.6008H10.5C10.005 18.6008 9.6 18.1958 9.6 17.7008C9.6 17.2058 10.005 16.8008 10.5 16.8008H15.9C16.395 16.8008 16.8 17.2058 16.8 17.7008C16.8 18.1958 16.395 18.6008 15.9 18.6008ZM19.5 15.0008H10.5C10.005 15.0008 9.6 14.5958 9.6 14.1008C9.6 13.6058 10.005 13.2008 10.5 13.2008H19.5C19.995 13.2008 20.4 13.6058 20.4 14.1008C20.4 14.5958 19.995 15.0008 19.5 15.0008Z" fill="#347BB2"></path></svg>