<svg viewBox="0 0 30 30" width="30" height="30" xmlns="http://www.w3.org/2000/svg" class="bepo-icon-svg_5170XkH2 bepo-icon-svg--prevent-pointer-events_5170G6lu" fill="none"><path fill-rule="evenodd" clip-rule="evenodd" d="M14.6801 21.9408C9.8862 21.9408 6 18.1034 6 13.3698C6 8.63619 9.8862 4.79883 14.6801 4.79883C19.474 4.79883 23.3602 8.63619 23.3602 13.3698C23.3602 15.7706 22.3606 17.9409 20.7498 19.4968L20.7562 19.498L15.5481 24.5121L15.1909 24.8647C15.0014 25.0519 14.6801 24.9177 14.6801 24.6513V21.9408ZM18.6 10.1988H10.2C9.86863 10.1988 9.6 10.4675 9.6 10.7988C9.6 11.1302 9.86863 11.3988 10.2 11.3988H18.6C18.9314 11.3988 19.2 11.1302 19.2 10.7988C19.2 10.4675 18.9314 10.1988 18.6 10.1988ZM18.6 12.5988H10.2C9.86863 12.5988 9.6 12.8675 9.6 13.1988C9.6 13.5302 9.86863 13.7988 10.2 13.7988H18.6C18.9314 13.7988 19.2 13.5302 19.2 13.1988C19.2 12.8675 18.9314 12.5988 18.6 12.5988ZM14.4 14.9988H10.2C9.86863 14.9988 9.6 15.2675 9.6 15.5988C9.6 15.9302 9.86863 16.1988 10.2 16.1988H14.4C14.7314 16.1988 15 15.9302 15 15.5988C15 15.2675 14.7314 14.9988 14.4 14.9988Z" fill="#347BB2"></path></svg>