<svg width="40" height="40" viewBox="0 0 40 40" fill="none" xmlns="http://www.w3.org/2000/svg">
<path fill-rule="evenodd" clip-rule="evenodd" d="M31.2812 8.65007C28.2879 5.65292 24.3069 4.00152 20.0651 4C11.3246 4 4.21111 11.1127 4.20807 19.8555C4.20655 22.6504 4.93721 25.3784 6.32478 27.7826L4.07501 36L12.481 33.7951C14.7969 35.0588 17.4048 35.724 20.0583 35.7248H20.0651C28.8041 35.7248 35.9184 28.6113 35.9214 19.8685C35.9229 15.6313 34.2753 11.648 31.2812 8.65083V8.65007ZM20.0651 33.047H20.0598C17.6952 33.0462 15.3755 32.4106 13.3516 31.21L12.8703 30.9242L7.8819 32.2327L9.2132 27.3689L8.89995 26.8702C7.58081 24.7717 6.8836 22.3463 6.88512 19.8563C6.88817 12.59 12.8003 6.67782 20.0705 6.67782C23.5907 6.67934 26.8996 8.05171 29.3881 10.5432C31.8766 13.034 33.2459 16.346 33.2444 19.867C33.2413 27.134 27.3292 33.0462 20.0651 33.0462V33.047ZM27.2942 23.1766C26.898 22.9782 24.9502 22.0201 24.5867 21.8879C24.2233 21.7555 23.9595 21.6895 23.6956 22.0863C23.4318 22.4832 22.6723 23.3758 22.4411 23.6396C22.21 23.9042 21.9788 23.9369 21.5827 23.7384C21.1866 23.54 19.91 23.1218 18.3963 21.7723C17.2186 20.7215 16.4232 19.4245 16.1921 19.0275C15.961 18.6307 16.1678 18.4163 16.3654 18.2193C16.5433 18.0414 16.7616 17.7563 16.96 17.5252C17.1585 17.294 17.2239 17.1283 17.3561 16.8645C17.4885 16.5999 17.4223 16.3688 17.3235 16.1703C17.2246 15.9719 16.4324 14.0216 16.1016 13.2287C15.78 12.4562 15.4531 12.5611 15.2106 12.5482C14.9794 12.5368 14.7156 12.5345 14.451 12.5345C14.1864 12.5345 13.7576 12.6333 13.3942 13.0302C13.0308 13.4271 12.0073 14.3858 12.0073 16.3353C12.0073 18.2847 13.4269 20.1696 13.6253 20.4342C13.8237 20.6988 16.4194 24.7003 20.3936 26.4171C21.3387 26.8253 22.0769 27.0694 22.6524 27.2519C23.6014 27.5537 24.465 27.5112 25.1478 27.4092C25.9089 27.2952 27.4919 26.4505 27.8218 25.5252C28.1518 24.5999 28.1518 23.8061 28.053 23.6411C27.9542 23.4761 27.6896 23.3765 27.2934 23.1781L27.2942 23.1766Z" fill="#25D366"/>
</svg>
