<svg width="56" height="56" viewBox="0 0 56 56" fill="none" xmlns="http://www.w3.org/2000/svg">
<circle opacity="0.15" cx="28" cy="28" r="28" fill="white"/>
<path d="M31.0129 27.5333V21C31.0129 19.0633 29.4496 17.5 27.5129 17.5C25.7163 17.5 24.2579 18.8533 24.0596 20.5917L31.0129 27.5333ZM34.6063 28C34.1279 28 33.7079 28.35 33.6379 28.8283C33.5796 29.2017 33.4979 29.575 33.3813 29.9133L34.8629 31.395C35.2129 30.695 35.4696 29.9367 35.5979 29.1317C35.6796 28.5367 35.2129 28 34.6063 28ZM17.8413 19.32C17.3862 19.775 17.3862 20.51 17.8413 20.965L24.0129 27.1483V27.65C24.0129 29.0383 24.7129 30.3567 25.9146 31.045C26.7896 31.5467 27.5596 31.5583 28.2713 31.4067L30.2079 33.3433C29.3796 33.7283 28.4579 33.95 27.5129 33.95C24.5496 33.95 21.8196 31.885 21.3879 28.8283C21.3179 28.35 20.8979 28 20.4196 28C19.8129 28 19.3463 28.5367 19.4279 29.1317C19.9646 32.585 22.8813 35.315 26.3463 35.84V38.5C26.3463 39.1417 26.8713 39.6667 27.5129 39.6667C28.1546 39.6667 28.6796 39.1417 28.6796 38.5V35.84C29.7413 35.6883 30.7446 35.315 31.6546 34.79L35.7263 38.8617C36.1813 39.3167 36.9163 39.3167 37.3713 38.8617C37.8263 38.4067 37.8263 37.6717 37.3713 37.2167L19.4862 19.32C19.0312 18.865 18.2963 18.865 17.8413 19.32Z" fill="white"/>
</svg>
