<svg width="56" height="56" viewBox="0 0 56 56" fill="none" xmlns="http://www.w3.org/2000/svg">
<circle opacity="0.15" cx="28" cy="28" r="28" fill="white"/>
<path fill-rule="evenodd" clip-rule="evenodd" d="M17.9279 18.1828C17.6113 17.8662 17.098 17.8662 16.7814 18.1828C16.4648 18.4994 16.4648 19.0127 16.7814 19.3293L21.6961 24.244V31.9804L28.0882 36.9969C28.8957 37.6307 30.1128 37.0833 30.1128 36.0864V32.6607L36.2728 38.8207C36.5894 39.1373 37.1027 39.1373 37.4193 38.8207C37.7359 38.5041 37.7359 37.9908 37.4193 37.6742L17.9279 18.1828ZM33.087 30.7938L34.5184 32.2252C36.0825 31.529 37.173 29.9612 37.173 28.1387C37.173 25.6695 35.1714 23.6678 32.7022 23.6678C32.2083 23.6678 31.808 24.0682 31.808 24.562C31.808 25.0558 32.2083 25.4562 32.7022 25.4562C34.1837 25.4562 35.3847 26.6572 35.3847 28.1387C35.3847 29.4895 34.3862 30.6072 33.087 30.7938ZM35.8464 33.5532L37.1442 34.8511C39.3157 33.411 40.7496 30.9434 40.7496 28.1397C40.7496 23.6952 37.1466 20.0922 32.702 20.0922C32.2082 20.0922 31.8079 20.4925 31.8079 20.9863C31.8079 21.4802 32.2082 21.8805 32.702 21.8805C36.1589 21.8805 38.9613 24.6829 38.9613 28.1397C38.9613 30.4491 37.7108 32.4678 35.8464 33.5532ZM24.0589 21.7657L30.1128 27.8196V19.7409C30.1128 18.7638 28.9376 18.2104 28.1232 18.8039L24.0589 21.7657ZM16.25 23.9595V31.5086C16.25 31.7691 16.4717 31.9804 16.7451 31.9804H20.7059V23.4876H16.7451C16.4717 23.4876 16.25 23.6989 16.25 23.9595Z" fill="white"/>
</svg>
