<svg width="56" height="56" viewBox="0 0 56 56" fill="none" xmlns="http://www.w3.org/2000/svg">
<circle opacity="0.15" cx="28" cy="28" r="28" fill="white"/>
<path fill-rule="evenodd" clip-rule="evenodd" d="M17.9428 17.4609C18.3333 17.0703 18.9665 17.0703 19.357 17.4609L37.5061 35.6099C37.8967 36.0004 37.8967 36.6336 37.5061 37.0241C37.1156 37.4146 36.4824 37.4146 36.0919 37.0241L32.1852 33.1174C31.97 33.2551 31.7172 33.3346 31.4499 33.3346H23.0353C22.2783 33.3346 21.6668 32.6966 21.6668 31.9066V23.1263C21.6668 22.9676 21.6915 22.8138 21.7371 22.6693L17.9428 18.8751C17.5523 18.4846 17.5523 17.8514 17.9428 17.4609ZM32.8475 28.3821V23.1263C32.8475 22.3364 32.207 21.668 31.4499 21.668H26.1333L32.8475 28.3821ZM37.7085 31.4234C37.7085 31.9546 37.2543 32.3277 36.7852 32.3192L33.3335 28.8675V25.5126L36.314 23.3424C36.8882 22.9427 37.7085 23.371 37.7085 24.0849V31.4234Z" fill="white"/>
</svg>
